<svg xmlns="http://www.w3.org/2000/svg" width="1200" height="1200" viewBox="0 0 1200 1200" fill="none">
  <defs>
    <linearGradient id="cedar-sheen" x1="0" y1="0" x2="0" y2="1">
      <stop offset="0%" stop-color="#d28b4b" />
      <stop offset="100%" stop-color="#7f3f1c" />
    </linearGradient>
    <linearGradient id="plank-light" x1="0" y1="0" x2="0" y2="1">
      <stop offset="0%" stop-color="#e0a064" />
      <stop offset="100%" stop-color="#a05a28" />
    </linearGradient>
    <linearGradient id="plank-mid" x1="0" y1="0" x2="0" y2="1">
      <stop offset="0%" stop-color="#d58949" />
      <stop offset="100%" stop-color="#8f4b20" />
    </linearGradient>
    <linearGradient id="plank-dark" x1="0" y1="0" x2="0" y2="1">
      <stop offset="0%" stop-color="#c37135" />
      <stop offset="100%" stop-color="#783416" />
    </linearGradient>
    <pattern id="cedar-planks" patternUnits="userSpaceOnUse" width="240" height="260" patternTransform="rotate(-3 120 130)">
      <rect width="80" height="260" fill="url(#plank-light)" />
      <rect x="80" width="80" height="260" fill="url(#plank-mid)" />
      <rect x="160" width="80" height="260" fill="url(#plank-dark)" />
      <path d="M80 0v260M160 0v260" stroke="#f8dcbf" stroke-width="3" stroke-opacity="0.35" />
      <path d="M0 60h240M0 130h240M0 200h240" stroke="#371c0f" stroke-width="2" stroke-opacity="0.16" />
    </pattern>
    <pattern id="cedar-grain" patternUnits="userSpaceOnUse" width="180" height="180" patternTransform="rotate(6 90 90)">
      <path d="M-10 40c60-20 90-20 150 10M-10 120c70-30 110-10 160 20M40 0c30 35 70 55 130 65" stroke="#3c1f0f" stroke-width="6" stroke-opacity="0.08" fill="none" />
      <path d="M10 70c40 20 90 20 140-15M20 150c50-25 100-5 150 25" stroke="#fbe1c6" stroke-width="4" stroke-opacity="0.07" fill="none" />
    </pattern>
    <radialGradient id="court-vignette" cx="0.5" cy="0.5" r="0.75">
      <stop offset="0%" stop-color="#000" stop-opacity="0" />
      <stop offset="100%" stop-color="#1d0f07" stop-opacity="0.35" />
    </radialGradient>
    <linearGradient id="center-glow" x1="0" y1="0" x2="1" y2="0">
      <stop offset="0%" stop-color="#f9d1a1" stop-opacity="0" />
      <stop offset="50%" stop-color="#fbe8c9" stop-opacity="0.35" />
      <stop offset="100%" stop-color="#f9d1a1" stop-opacity="0" />
    </linearGradient>
    <pattern id="bracket-floaties" width="360" height="260" patternUnits="userSpaceOnUse" patternTransform="rotate(-2 180 130)">
      <path d="M0 30h100v80h140v80h120" stroke="#fff" stroke-opacity="0.22" stroke-width="3" fill="none" />
      <path d="M0 140h150v70h110v70h100" stroke="#fff" stroke-opacity="0.12" stroke-width="2" fill="none" />
      <path d="M360 230h-110v-70h-110v-70h-150" stroke="#fff" stroke-opacity="0.22" stroke-width="3" fill="none" />
      <path d="M360 120h-120v-70h-140v-70h-100" stroke="#fff" stroke-opacity="0.12" stroke-width="2" fill="none" />
    </pattern>
  </defs>
  <rect width="1200" height="1200" fill="url(#cedar-planks)" />
  <rect width="1200" height="1200" fill="url(#cedar-grain)" opacity="0.55" />
  <rect width="1200" height="1200" fill="url(#center-glow)" opacity="0.7" />
  <rect width="1200" height="1200" fill="url(#court-vignette)" opacity="0.75" />
  <rect width="1200" height="1200" fill="url(#bracket-floaties)" opacity="0.24" />
  <g stroke="#fdf9f4" stroke-width="10" stroke-linejoin="round" stroke-linecap="round" fill="none">
    <rect x="110" y="170" width="980" height="860" rx="18" />
    <line x1="600" y1="170" x2="600" y2="1030" />
    <circle cx="600" cy="600" r="170" />
    <circle cx="600" cy="600" r="12" fill="#fdf9f4" />
    <rect x="110" y="380" width="200" height="440" rx="12" />
    <rect x="890" y="380" width="200" height="440" rx="12" />
    <path d="M310 420a180 180 0 0 1 0 360" />
    <path d="M890 780a180 180 0 0 1 0-360" />
    <path d="M110 380v440" stroke-width="8" />
    <path d="M1090 380v440" stroke-width="8" />
    <path d="M110 268h120" stroke-width="8" />
    <path d="M1090 268h-120" stroke-width="8" />
    <path d="M110 932h120" stroke-width="8" />
    <path d="M1090 932h-120" stroke-width="8" />
    <path d="M310 520h140" stroke-width="6" />
    <path d="M310 680h140" stroke-width="6" />
    <path d="M890 520h-140" stroke-width="6" />
    <path d="M890 680h-140" stroke-width="6" />
    <path d="M110 470h68" stroke-width="6" />
    <path d="M110 550h68" stroke-width="6" />
    <path d="M110 630h68" stroke-width="6" />
    <path d="M110 710h68" stroke-width="6" />
    <path d="M1090 470h-68" stroke-width="6" />
    <path d="M1090 550h-68" stroke-width="6" />
    <path d="M1090 630h-68" stroke-width="6" />
    <path d="M1090 710h-68" stroke-width="6" />
    <path d="M250 170v120" stroke-width="8" />
    <path d="M950 170v120" stroke-width="8" />
    <path d="M250 1030v-120" stroke-width="8" />
    <path d="M950 1030v-120" stroke-width="8" />
    <path d="M110 600h120" stroke-width="8" />
    <path d="M1090 600h-120" stroke-width="8" />
    <path d="M450 380v440" stroke-dasharray="24 20" stroke-width="5" />
    <path d="M750 380v440" stroke-dasharray="24 20" stroke-width="5" />
  </g>
  <g stroke="#fdf9f4" stroke-width="8" fill="none" stroke-linecap="round">
    <path d="M310 320h60" />
    <path d="M890 320h-60" />
    <path d="M310 880h60" />
    <path d="M890 880h-60" />
  </g>
</svg>
