<svg xmlns="http://www.w3.org/2000/svg" viewBox="0 0 800 800" width="800" height="800" role="img" aria-label="Basketball texture background">
  <defs>
    <radialGradient id="ballGradient" cx="50%" cy="45%" r="65%">
      <stop offset="0%" stop-color="#ffdda6" />
      <stop offset="28%" stop-color="#ffbb66" />
      <stop offset="62%" stop-color="#f97c1a" />
      <stop offset="100%" stop-color="#b64007" />
    </radialGradient>
    <radialGradient id="pebble" cx="30%" cy="30%" r="85%">
      <stop offset="0%" stop-color="rgba(255, 230, 190, 0.85)" />
      <stop offset="35%" stop-color="rgba(255, 172, 75, 0.45)" />
      <stop offset="100%" stop-color="rgba(156, 57, 6, 0.0)" />
    </radialGradient>
    <radialGradient id="pebbleHighlight" cx="70%" cy="70%" r="95%">
      <stop offset="0%" stop-color="rgba(255, 214, 180, 0.7)" />
      <stop offset="35%" stop-color="rgba(255, 150, 60, 0.25)" />
      <stop offset="100%" stop-color="rgba(120, 40, 10, 0)" />
    </radialGradient>
    <pattern id="pebbles" patternUnits="userSpaceOnUse" width="72" height="72" patternTransform="rotate(8)">
      <circle cx="18" cy="18" r="18" fill="url(#pebble)" />
      <circle cx="54" cy="18" r="18" fill="url(#pebbleHighlight)" />
      <circle cx="18" cy="54" r="18" fill="url(#pebbleHighlight)" />
      <circle cx="54" cy="54" r="18" fill="url(#pebble)" />
      <circle cx="36" cy="36" r="16" fill="rgba(255, 198, 120, 0.24)" />
    </pattern>
    <filter id="grain" x="-20%" y="-20%" width="140%" height="140%">
      <feTurbulence type="fractalNoise" baseFrequency="1.2" numOctaves="3" seed="12" result="noise" />
      <feColorMatrix type="matrix" values="0 0 0 0 0.8  0 0 0 0 0.45  0 0 0 0 0.15  0 0 0 -0.85 1.1" result="grain" />
      <feBlend in="SourceGraphic" in2="grain" mode="soft-light" />
    </filter>
    <radialGradient id="rimGlow" cx="50%" cy="50%" r="70%">
      <stop offset="65%" stop-color="rgba(0, 0, 0, 0)" />
      <stop offset="100%" stop-color="rgba(30, 9, 2, 0.55)" />
    </radialGradient>
    <linearGradient id="sheen" x1="0%" y1="0%" x2="100%" y2="100%">
      <stop offset="0%" stop-color="rgba(255, 255, 255, 0.45)" />
      <stop offset="40%" stop-color="rgba(255, 180, 90, 0.18)" />
      <stop offset="100%" stop-color="rgba(90, 24, 0, 0.0)" />
    </linearGradient>
  </defs>
  <rect width="800" height="800" fill="url(#ballGradient)" />
  <rect width="800" height="800" fill="url(#pebbles)" opacity="0.52" />
  <rect width="800" height="800" fill="url(#sheen)" opacity="0.55" />
  <rect width="800" height="800" fill="url(#rimGlow)" opacity="0.65" />
  <g filter="url(#grain)">
    <path d="M-40 400 Q 220 380 440 400 Q 620 420 840 400" fill="none" stroke="rgba(18, 9, 4, 0.92)" stroke-width="20" stroke-linecap="round" stroke-linejoin="round" />
    <path d="M-40 400 Q 220 420 440 400 Q 620 380 840 400" fill="none" stroke="rgba(18, 9, 4, 0.85)" stroke-width="12" stroke-linecap="round" stroke-linejoin="round" />
    <path d="M400 -60 Q 420 180 400 400 Q 380 620 400 860" fill="none" stroke="rgba(18, 9, 4, 0.95)" stroke-width="18" stroke-linecap="round" stroke-linejoin="round" />
    <path d="M400 -60 Q 380 180 400 400 Q 420 620 400 860" fill="none" stroke="rgba(18, 9, 4, 0.85)" stroke-width="12" stroke-linecap="round" stroke-linejoin="round" />
    <path d="M-140 140 Q 160 280 320 400 Q 540 560 940 660" fill="none" stroke="rgba(18, 9, 4, 0.65)" stroke-width="14" stroke-linecap="round" stroke-linejoin="round" />
    <path d="M940 140 Q 640 280 480 400 Q 260 560 -140 660" fill="none" stroke="rgba(18, 9, 4, 0.65)" stroke-width="14" stroke-linecap="round" stroke-linejoin="round" />
  </g>
</svg>
